<?xml version="1.0" standalone="no"?>
<svg xmlns:xlink="http://www.w3.org/1999/xlink" id="wave" style="transform:rotate(180deg); transition: 0.3s" viewBox="0 0 1440 490" version="1.1" xmlns="http://www.w3.org/2000/svg"><defs><linearGradient id="sw-gradient-0" x1="0" x2="0" y1="1" y2="0"><stop stop-color="rgba(243, 106, 62, 1)" offset="0%"/><stop stop-color="rgba(255, 179, 11, 1)" offset="100%"/></linearGradient></defs><path style="transform:translate(0, 0px); opacity:1" fill="url(#sw-gradient-0)" d="M0,49L16,49C32,49,64,49,96,81.7C128,114,160,180,192,212.3C224,245,256,245,288,228.7C320,212,352,180,384,155.2C416,131,448,114,480,98C512,82,544,65,576,114.3C608,163,640,278,672,285.8C704,294,736,196,768,187.8C800,180,832,261,864,285.8C896,310,928,278,960,253.2C992,229,1024,212,1056,179.7C1088,147,1120,98,1152,130.7C1184,163,1216,278,1248,318.5C1280,359,1312,327,1344,294C1376,261,1408,229,1440,196C1472,163,1504,131,1536,130.7C1568,131,1600,163,1632,155.2C1664,147,1696,98,1728,106.2C1760,114,1792,180,1824,220.5C1856,261,1888,278,1920,277.7C1952,278,1984,261,2016,277.7C2048,294,2080,343,2112,302.2C2144,261,2176,131,2208,98C2240,65,2272,131,2288,163.3L2304,196L2304,490L2288,490C2272,490,2240,490,2208,490C2176,490,2144,490,2112,490C2080,490,2048,490,2016,490C1984,490,1952,490,1920,490C1888,490,1856,490,1824,490C1792,490,1760,490,1728,490C1696,490,1664,490,1632,490C1600,490,1568,490,1536,490C1504,490,1472,490,1440,490C1408,490,1376,490,1344,490C1312,490,1280,490,1248,490C1216,490,1184,490,1152,490C1120,490,1088,490,1056,490C1024,490,992,490,960,490C928,490,896,490,864,490C832,490,800,490,768,490C736,490,704,490,672,490C640,490,608,490,576,490C544,490,512,490,480,490C448,490,416,490,384,490C352,490,320,490,288,490C256,490,224,490,192,490C160,490,128,490,96,490C64,490,32,490,16,490L0,490Z"/><defs><linearGradient id="sw-gradient-1" x1="0" x2="0" y1="1" y2="0"><stop stop-color="rgba(243, 106, 62, 1)" offset="0%"/><stop stop-color="rgba(255, 179, 11, 1)" offset="100%"/></linearGradient></defs><path style="transform:translate(0, 50px); opacity:0.9" fill="url(#sw-gradient-1)" d="M0,0L16,0C32,0,64,0,96,32.7C128,65,160,131,192,171.5C224,212,256,229,288,212.3C320,196,352,147,384,171.5C416,196,448,294,480,334.8C512,376,544,359,576,318.5C608,278,640,212,672,187.8C704,163,736,180,768,155.2C800,131,832,65,864,57.2C896,49,928,98,960,106.2C992,114,1024,82,1056,57.2C1088,33,1120,16,1152,73.5C1184,131,1216,261,1248,294C1280,327,1312,261,1344,220.5C1376,180,1408,163,1440,147C1472,131,1504,114,1536,122.5C1568,131,1600,163,1632,204.2C1664,245,1696,294,1728,269.5C1760,245,1792,147,1824,138.8C1856,131,1888,212,1920,277.7C1952,343,1984,392,2016,400.2C2048,408,2080,376,2112,375.7C2144,376,2176,408,2208,351.2C2240,294,2272,147,2288,73.5L2304,0L2304,490L2288,490C2272,490,2240,490,2208,490C2176,490,2144,490,2112,490C2080,490,2048,490,2016,490C1984,490,1952,490,1920,490C1888,490,1856,490,1824,490C1792,490,1760,490,1728,490C1696,490,1664,490,1632,490C1600,490,1568,490,1536,490C1504,490,1472,490,1440,490C1408,490,1376,490,1344,490C1312,490,1280,490,1248,490C1216,490,1184,490,1152,490C1120,490,1088,490,1056,490C1024,490,992,490,960,490C928,490,896,490,864,490C832,490,800,490,768,490C736,490,704,490,672,490C640,490,608,490,576,490C544,490,512,490,480,490C448,490,416,490,384,490C352,490,320,490,288,490C256,490,224,490,192,490C160,490,128,490,96,490C64,490,32,490,16,490L0,490Z"/><defs><linearGradient id="sw-gradient-2" x1="0" x2="0" y1="1" y2="0"><stop stop-color="rgba(243, 106, 62, 1)" offset="0%"/><stop stop-color="rgba(255, 179, 11, 1)" offset="100%"/></linearGradient></defs><path style="transform:translate(0, 100px); opacity:0.8" fill="url(#sw-gradient-2)" d="M0,0L16,57.2C32,114,64,229,96,236.8C128,245,160,147,192,163.3C224,180,256,310,288,326.7C320,343,352,245,384,171.5C416,98,448,49,480,40.8C512,33,544,65,576,65.3C608,65,640,33,672,73.5C704,114,736,229,768,294C800,359,832,376,864,318.5C896,261,928,131,960,130.7C992,131,1024,261,1056,294C1088,327,1120,261,1152,220.5C1184,180,1216,163,1248,171.5C1280,180,1312,212,1344,196C1376,180,1408,114,1440,81.7C1472,49,1504,49,1536,98C1568,147,1600,245,1632,253.2C1664,261,1696,180,1728,163.3C1760,147,1792,196,1824,228.7C1856,261,1888,278,1920,310.3C1952,343,1984,392,2016,408.3C2048,425,2080,408,2112,392C2144,376,2176,359,2208,367.5C2240,376,2272,408,2288,424.7L2304,441L2304,490L2288,490C2272,490,2240,490,2208,490C2176,490,2144,490,2112,490C2080,490,2048,490,2016,490C1984,490,1952,490,1920,490C1888,490,1856,490,1824,490C1792,490,1760,490,1728,490C1696,490,1664,490,1632,490C1600,490,1568,490,1536,490C1504,490,1472,490,1440,490C1408,490,1376,490,1344,490C1312,490,1280,490,1248,490C1216,490,1184,490,1152,490C1120,490,1088,490,1056,490C1024,490,992,490,960,490C928,490,896,490,864,490C832,490,800,490,768,490C736,490,704,490,672,490C640,490,608,490,576,490C544,490,512,490,480,490C448,490,416,490,384,490C352,490,320,490,288,490C256,490,224,490,192,490C160,490,128,490,96,490C64,490,32,490,16,490L0,490Z"/></svg>