<?xml version="1.0" standalone="no"?>
<svg xmlns:xlink="http://www.w3.org/1999/xlink" id="wave" style="transform:rotate(180deg); transition: 0.3s" viewBox="0 0 1440 450" version="1.1" xmlns="http://www.w3.org/2000/svg"><defs><linearGradient id="sw-gradient-0" x1="0" x2="0" y1="1" y2="0"><stop stop-color="rgba(243, 106, 62, 1)" offset="0%"/><stop stop-color="rgba(255, 179, 11, 1)" offset="100%"/></linearGradient></defs><path style="transform:translate(0, 0px); opacity:1" fill="url(#sw-gradient-0)" d="M0,360L60,0L120,270L180,45L240,135L300,270L360,0L420,90L480,315L540,45L600,225L660,45L720,270L780,315L840,270L900,225L960,0L1020,45L1080,90L1140,90L1200,360L1260,360L1320,360L1380,90L1440,45L1440,450L1380,450L1320,450L1260,450L1200,450L1140,450L1080,450L1020,450L960,450L900,450L840,450L780,450L720,450L660,450L600,450L540,450L480,450L420,450L360,450L300,450L240,450L180,450L120,450L60,450L0,450Z"/><defs><linearGradient id="sw-gradient-1" x1="0" x2="0" y1="1" y2="0"><stop stop-color="rgba(243, 106, 62, 1)" offset="0%"/><stop stop-color="rgba(255, 179, 11, 1)" offset="100%"/></linearGradient></defs><path style="transform:translate(0, 50px); opacity:0.9" fill="url(#sw-gradient-1)" d="M0,135L60,315L120,90L180,45L240,225L300,270L360,360L420,315L480,0L540,225L600,360L660,90L720,360L780,360L840,135L900,405L960,270L1020,0L1080,135L1140,405L1200,45L1260,315L1320,135L1380,360L1440,0L1440,450L1380,450L1320,450L1260,450L1200,450L1140,450L1080,450L1020,450L960,450L900,450L840,450L780,450L720,450L660,450L600,450L540,450L480,450L420,450L360,450L300,450L240,450L180,450L120,450L60,450L0,450Z"/><defs><linearGradient id="sw-gradient-2" x1="0" x2="0" y1="1" y2="0"><stop stop-color="rgba(243, 106, 62, 1)" offset="0%"/><stop stop-color="rgba(255, 179, 11, 1)" offset="100%"/></linearGradient></defs><path style="transform:translate(0, 100px); opacity:0.8" fill="url(#sw-gradient-2)" d="M0,270L60,135L120,90L180,45L240,270L300,135L360,45L420,180L480,180L540,45L600,90L660,135L720,225L780,225L840,225L900,315L960,270L1020,45L1080,90L1140,270L1200,405L1260,225L1320,0L1380,360L1440,90L1440,450L1380,450L1320,450L1260,450L1200,450L1140,450L1080,450L1020,450L960,450L900,450L840,450L780,450L720,450L660,450L600,450L540,450L480,450L420,450L360,450L300,450L240,450L180,450L120,450L60,450L0,450Z"/><defs><linearGradient id="sw-gradient-3" x1="0" x2="0" y1="1" y2="0"><stop stop-color="rgba(243, 106, 62, 1)" offset="0%"/><stop stop-color="rgba(255, 179, 11, 1)" offset="100%"/></linearGradient></defs><path style="transform:translate(0, 150px); opacity:0.7" fill="url(#sw-gradient-3)" d="M0,180L60,90L120,270L180,180L240,360L300,405L360,90L420,135L480,135L540,405L600,315L660,135L720,360L780,270L840,315L900,45L960,180L1020,225L1080,0L1140,90L1200,135L1260,225L1320,405L1380,90L1440,360L1440,450L1380,450L1320,450L1260,450L1200,450L1140,450L1080,450L1020,450L960,450L900,450L840,450L780,450L720,450L660,450L600,450L540,450L480,450L420,450L360,450L300,450L240,450L180,450L120,450L60,450L0,450Z"/></svg>